<?xml version="1.0" encoding="utf-8"?>
<!-- Generator: Adobe Illustrator 16.0.0, SVG Export Plug-In . SVG Version: 6.00 Build 0)  -->
<!DOCTYPE svg PUBLIC "-//W3C//DTD SVG 1.1 Tiny//EN" "http://www.w3.org/Graphics/SVG/1.1/DTD/svg11-tiny.dtd">
<svg version="1.1" baseProfile="tiny" id="Layer_1" xmlns="http://www.w3.org/2000/svg" xmlns:xlink="http://www.w3.org/1999/xlink"
	 x="0px" y="0px" width="50px" height="50px" viewBox="0 0 50 50" xml:space="preserve">
<g>
	<path fill-rule="evenodd" fill="#282424" d="M29.529,38.088c0.135,0.03,0.271,0.05,0.402,0.083
		c0.339,0.091,0.718,0.263,0.757,0.599c0.044,0.45-0.462,0.4-0.743,0.51c-1.692,0.646-3.502,0.773-5.334,1.189
		c0.479,0.557,1.001,0.608,1.596,0.458c0.989-0.252,1.973-0.506,2.97-0.729c0.325-0.07,0.672-0.066,1.008-0.059
		c0.332,0.016,0.6,0.172,0.658,0.532c0.057,0.378-0.202,0.538-0.509,0.649c-0.903,0.335-1.846,0.438-2.794,0.543
		c-0.86,0.101-1.744,0.14-2.464,0.852c1.006-0.107,2.011-0.229,3.018-0.326c0.78-0.075,1.556-0.145,2.34-0.182
		c0.352-0.016,0.808-0.094,0.851,0.46c0.041,0.529-0.342,0.698-0.768,0.773c-1.271,0.223-2.547,0.436-3.816,0.661
		c-0.151,0.024-0.343-0.021-0.452,0.261c0.232,0.232,0.517,0.153,0.792,0.093c1.051-0.24,2.099-0.136,3.129,0.097
		c0.897,0.206,1.163,0.837,0.675,1.608c-0.575,0.903-1.262,1.715-2.495,1.668c-0.596-0.02-0.885,0.374-1.215,0.787
		c-0.45,0.562-0.837,1.199-1.721,1.271c-0.763,0.067-1.242-0.313-1.636-0.812c-0.51-0.652-1.083-0.964-1.921-0.86
		c-0.559,0.068-1.074-0.129-1.48-0.548c-0.869-0.898-0.74-1.478,0.422-1.894c0.408-0.143,0.847-0.237,1.229-0.776
		c-0.657,0.044-1.194,0.092-1.734,0.109c-0.534,0.022-1.2,0.148-1.29-0.614c-0.096-0.787,0.636-0.657,1.081-0.746
		c0.689-0.138,1.367-0.257,2.012-0.858c-0.993-0.225-1.798,0.128-2.618,0.15c-0.344,0.012-0.837,0.233-0.968-0.264
		c-0.127-0.486,0.392-0.544,0.696-0.731c0.722-0.439,1.668-0.232,2.348-1.025c-0.572,0-1.142,0.007-1.713-0.001
		c-0.462-0.009-1.005,0.106-1.177-0.526c-0.181-0.661,0.343-0.784,0.786-0.964c0.091-0.035,0.165-0.112,0.272-0.19
		c-0.598-0.376-0.989-0.92-0.971-1.588c0.061-2.271-1.241-4.035-2.136-5.946c-2.267-4.854-4.556-9.657-5.407-15.066
		C9.621,6.647,16.901,1.166,23.422,0.272c4.975-0.682,9.266,0.714,12.766,4.364c1.193,1.243,1.913,2.756,2.089,4.444
		c0.439,4.283,0.378,8.55-0.805,12.736c-0.361,1.276-0.895,2.497-1.493,3.672c-1.294,2.547-2.416,5.161-3.614,7.749
		c-0.554,1.188-1.414,2.224-1.779,3.521c-0.146,0.508-0.626,0.781-1.084,1.026c-0.811,0.21-1.716-0.006-2.604,0.55
		C27.912,38.535,28.716,38.242,29.529,38.088z M21.076,2.903c-1.604,0.43-3.016,1.232-4.168,2.402
		c-1.657,1.685-3.283,3.391-3.589,5.94c-0.433,3.623,0.108,7.092,1.288,10.511c1.374,3.978,3.159,7.787,4.656,11.708
		c0.325,0.849,0.869,1.948,1.633,2.008c2.133,0.162,4.123,1.137,6.318,0.916c1.691-0.172,2.342-0.453,2.554-2.134
		c0.19-1.479,0.875-2.694,1.514-3.951c1.36-2.659,2.877-5.241,3.859-8.073c1.289-3.697,1.287-7.532,1.217-11.375
		c-0.029-1.621-0.415-3.018-1.499-4.371c-2.619-3.271-5.902-4.735-10.044-4.374C23.507,2.092,22.263,2.368,21.076,2.903z
		 M22.865,46.618c-0.022,0.068-0.045,0.14-0.068,0.206c0.663,0.3,1.325,0.611,1.996,0.896c0.26,0.107,0.555,0.142,0.716-0.163
		c0.433-0.822,1.203-0.905,1.993-0.979c0.352-0.032,0.752-0.129,0.646-0.579c-0.099-0.413-0.498-0.253-0.777-0.202
		C25.861,46.058,24.364,46.344,22.865,46.618z"/>
	<path fill-rule="evenodd" fill="#292627" d="M12.141,28.045c0.007,0.212-0.164,0.382-0.354,0.525
		c-1.825,1.346-3.751,2.529-5.764,3.571c-0.258,0.135-0.514,0.233-0.723-0.04c-0.21-0.278-0.025-0.5,0.15-0.718
		c1.39-1.709,3.254-2.825,5.086-3.96C11.158,27.037,12.093,27.47,12.141,28.045z"/>
	<path fill-rule="evenodd" fill="#292727" d="M41.12,14.113c-0.312-0.086-0.688-0.02-0.813-0.356
		c-0.128-0.344,0.026-0.635,0.313-0.887c1.312-1.15,2.824-1.695,4.565-1.55c0.637,0.051,1.127,0.352,1.194,1.027
		c0.063,0.699-0.525,0.78-1.018,0.886C43.944,13.535,42.521,13.823,41.12,14.113z"/>
	<path fill-rule="evenodd" fill="#282526" d="M41.241,39.639c-0.075,0.418-0.294,0.679-0.618,0.819
		c-0.32,0.138-0.665,0.189-0.949-0.097c-1.259-1.279-2.646-2.447-3.647-3.963c-0.181-0.283-0.424-0.6-0.105-0.916
		c0.266-0.259,0.603-0.271,0.936-0.059c1.581,1.018,2.865,2.364,4.156,3.715C41.142,39.276,41.181,39.502,41.241,39.639z"/>
	<path fill-rule="evenodd" fill="#292627" d="M10.297,38.223c-0.735,0.002-0.869-0.27-0.549-0.757
		c1.07-1.631,2.45-2.972,3.973-4.173c0.367-0.288,0.708-0.188,0.96,0.171c0.239,0.346,0.709,0.747,0.27,1.151
		c-1.265,1.167-2.453,2.433-3.912,3.375C10.796,38.146,10.467,38.17,10.297,38.223z"/>
	<path fill-rule="evenodd" fill="#292627" d="M41.977,20.299c1.244,0.065,2.521-0.025,3.678,0.565
		c0.399,0.202,0.982,0.373,0.817,0.988c-0.145,0.534-0.674,0.468-1.115,0.476c-1.396,0.032-2.773-0.116-4.125-0.466
		c-0.455-0.117-0.916-0.262-1.232-0.652c-0.184-0.224-0.279-0.46-0.151-0.75c0.125-0.28,0.371-0.259,0.606-0.25
		C40.962,20.234,41.469,20.268,41.977,20.299z"/>
	<path fill-rule="evenodd" fill="#282727" d="M43.463,0.708c0.346,0.021,0.692,0.043,0.834,0.439c0.16,0.428,0.078,0.87-0.255,1.12
		c-1.264,0.956-2.544,1.908-4.033,2.51c-0.264,0.107-0.531,0.094-0.75-0.132c-0.181-0.19-0.213-0.406-0.135-0.655
		C39.421,2.991,42.441,0.706,43.463,0.708z"/>
	<path fill-rule="evenodd" fill="#2A2628" d="M39.818,29.354c1.834,0.215,3.504,0.798,4.789,2.209
		c0.311,0.339,0.634,0.752,0.328,1.168c-0.296,0.404-0.77,0.249-1.191,0.038c-1.061-0.526-2.138-1.03-3.205-1.544
		c-0.5-0.242-0.892-0.62-1.227-1.052c-0.144-0.19-0.267-0.408-0.116-0.659C39.346,29.262,39.576,29.27,39.818,29.354z"/>
	<path fill-rule="evenodd" fill="#2A2627" d="M7.423,19.209c0.303,0.035,0.616,0.031,0.903,0.117c0.442,0.132,0.82,0.393,0.832,0.91
		c0.009,0.492-0.435,0.538-0.771,0.676c-1.277,0.517-2.587,0.804-3.975,0.626c-0.428-0.055-0.822-0.155-0.899-0.661
		c-0.079-0.503,0.239-0.736,0.658-0.884C5.227,19.622,6.269,19.197,7.423,19.209z"/>
	<path fill-rule="evenodd" fill="#2B292A" d="M7.803,12.378c-1.003-0.123-2.008-0.239-3.011-0.374
		c-0.411-0.053-0.815-0.171-1.009-0.582c-0.264-0.556-0.192-1.06,0.504-1.128c1.518-0.149,2.852,0.377,4.042,1.297
		c0.202,0.155,0.337,0.356,0.182,0.608C8.348,12.465,8.082,12.494,7.803,12.378z"/>
	<path fill-rule="evenodd" fill="#2B292A" d="M7.14,2.577c1.202,0.178,2.37,0.478,3.302,1.355c0.284,0.267,0.54,0.569,0.284,0.967
		c-0.241,0.373-0.592,0.224-0.909,0.087c-1.02-0.438-2.109-0.73-3.018-1.408C6.578,3.412,6.367,3.222,6.456,2.906
		C6.554,2.568,6.857,2.604,7.14,2.577z"/>
	<path fill-rule="evenodd" fill="#CBCACA" d="M29.529,38.088c-0.813,0.154-1.617,0.447-2.632,0.246
		c0.889-0.556,1.794-0.34,2.604-0.55C29.513,37.885,29.518,37.99,29.529,38.088z"/>
	<path fill-rule="evenodd" fill="#FDEF02" d="M24.813,2.111c4.142-0.361,7.425,1.104,10.044,4.374
		c1.084,1.353,1.47,2.75,1.499,4.371c0.07,3.843,0.072,7.678-1.217,11.375c-0.982,2.832-2.499,5.414-3.859,8.073
		c-0.639,1.257-1.323,2.472-1.514,3.951c-0.212,1.681-0.862,1.962-2.554,2.134c-2.196,0.221-4.186-0.754-6.318-0.916
		c-0.764-0.06-1.308-1.159-1.633-2.008c-1.497-3.922-3.282-7.73-4.656-11.708c-1.179-3.419-1.721-6.888-1.288-10.511
		c0.306-2.549,1.932-4.255,3.589-5.94c1.152-1.17,2.564-1.973,4.168-2.402C22.326,2.662,23.642,2.724,24.813,2.111z"/>
	<path fill-rule="evenodd" fill="#ECECEC" d="M22.865,46.618c1.499-0.274,2.997-0.561,4.505-0.822
		c0.279-0.051,0.679-0.211,0.777,0.202c0.105,0.45-0.295,0.547-0.646,0.579c-0.79,0.074-1.561,0.157-1.993,0.979
		c-0.161,0.305-0.456,0.271-0.716,0.163c-0.671-0.284-1.333-0.596-1.996-0.896C22.819,46.758,22.842,46.687,22.865,46.618z"/>
	<path fill-rule="evenodd" fill="#E6DD26" d="M24.813,2.111c-1.171,0.613-2.487,0.551-3.737,0.792
		C22.263,2.368,23.507,2.092,24.813,2.111z"/>
</g>
</svg>
