<?xml version="1.0" encoding="utf-8"?>
<!-- Generator: Adobe Illustrator 16.0.0, SVG Export Plug-In . SVG Version: 6.00 Build 0)  -->
<!DOCTYPE svg PUBLIC "-//W3C//DTD SVG 1.1 Tiny//EN" "http://www.w3.org/Graphics/SVG/1.1/DTD/svg11-tiny.dtd">
<svg version="1.1" baseProfile="tiny" id="Layer_1" xmlns="http://www.w3.org/2000/svg" xmlns:xlink="http://www.w3.org/1999/xlink"
	 x="0px" y="0px" width="50px" height="50px" viewBox="0 0 260 260" xml:space="preserve" title="Light bulb, the site's logo">
<g>
	<path fill-rule="evenodd" fill="#282424" d="M153.126,195.457c0.653,0.133,1.313,0.237,1.957,0.406
		c1.679,0.441,3.546,1.284,3.72,2.932c0.233,2.216-2.257,1.968-3.635,2.493c-8.296,3.164-17.191,3.804-26.16,5.828
		c2.342,2.75,4.914,2.995,7.827,2.248c4.838-1.238,9.677-2.481,14.551-3.564c1.595-0.354,3.304-0.339,4.951-0.274
		c1.614,0.063,2.945,0.838,3.222,2.588c0.294,1.856-0.996,2.644-2.492,3.2c-4.418,1.646-9.054,2.139-13.691,2.668
		c-4.228,0.481-8.561,0.672-12.089,4.165c4.935-0.539,9.864-1.121,14.804-1.604c3.811-0.371,7.63-0.698,11.453-0.882
		c1.743-0.084,3.983-0.456,4.196,2.257c0.202,2.58-1.68,3.409-3.786,3.782c-6.229,1.104-12.471,2.149-18.702,3.246
		c-0.741,0.131-1.696-0.111-2.213,1.276c1.122,1.15,2.523,0.759,3.886,0.451c5.153-1.163,10.294-0.664,15.331,0.489
		c4.413,1.01,5.713,4.104,3.309,7.882c-2.826,4.439-6.187,8.411-12.226,8.185c-2.914-0.108-4.336,1.833-5.96,3.855
		c-2.216,2.759-4.105,5.878-8.438,6.242c-3.753,0.315-6.104-1.552-8.024-4.001c-2.499-3.188-5.315-4.725-9.43-4.21
		c-2.731,0.342-5.263-0.628-7.253-2.684c-4.269-4.408-3.633-7.239,2.067-9.283c1.995-0.716,4.151-1.173,6.019-3.821
		c-3.219,0.213-5.854,0.445-8.494,0.545c-2.626,0.1-5.883,0.719-6.333-3.021c-0.464-3.852,3.13-3.211,5.309-3.65
		c3.383-0.684,6.703-1.271,9.871-4.215c-4.879-1.092-8.821,0.626-12.845,0.749c-1.68,0.051-4.106,1.131-4.747-1.311
		c-0.622-2.369,1.922-2.665,3.414-3.576c3.533-2.159,8.175-1.151,11.516-5.028c-2.803,0-5.606,0.042-8.407-0.014
		c-2.266-0.045-4.932,0.527-5.769-2.572c-0.877-3.251,1.688-3.856,3.862-4.73c0.442-0.178,0.802-0.559,1.336-0.944
		c-2.938-1.837-4.859-4.494-4.771-7.767c0.299-11.139-6.085-19.789-10.464-29.172c-11.115-23.814-22.345-47.363-26.524-73.896
		c-7.793-49.474,27.916-76.356,59.903-80.74c24.398-3.343,45.44,3.5,62.615,21.404c5.846,6.094,9.373,13.514,10.229,21.798
		c2.172,21.003,1.854,41.93-3.943,62.455c-1.77,6.264-4.375,12.248-7.312,18.023c-6.342,12.471-11.855,25.314-17.745,37.988
		c-2.709,5.828-6.915,10.907-8.716,17.269c-0.704,2.488-3.073,3.845-5.319,5.034c-3.967,1.038-8.419-0.035-12.771,2.711
		C145.179,197.631,149.116,196.195,153.126,195.457z M111.662,22.885c-7.862,2.111-14.795,6.047-20.439,11.786
		c-8.126,8.263-16.106,16.628-17.603,29.137c-2.125,17.757,0.533,34.781,6.315,51.538c6.729,19.502,15.484,38.19,22.835,57.44
		c1.586,4.155,4.259,9.546,7.998,9.83c10.465,0.795,20.227,5.591,31.002,4.494c8.289-0.843,11.476-2.229,12.524-10.472
		c0.923-7.248,4.272-13.208,7.426-19.377c6.661-13.029,14.098-25.686,18.93-39.583c6.304-18.129,6.294-36.943,5.958-55.791
		c-0.141-7.946-2.026-14.795-7.348-21.432c-12.864-16.041-28.958-23.226-49.269-21.449
		C123.588,18.912,117.491,20.264,111.662,22.885z M120.433,237.287c-0.11,0.338-0.221,0.675-0.332,1.013
		c3.258,1.47,6.496,2.988,9.786,4.385c1.27,0.539,2.714,0.703,3.509-0.806c2.114-4.013,5.913-4.421,9.791-4.793
		c1.713-0.165,3.675-0.63,3.159-2.847c-0.472-2.029-2.447-1.24-3.828-0.995C135.148,234.547,127.793,235.931,120.433,237.287z"/>
	<path fill-rule="evenodd" fill="#292627" d="M67.843,146.191c0.038,1.056-0.8,1.888-1.735,2.577
		c-8.951,6.6-18.4,12.399-28.271,17.517c-1.262,0.654-2.519,1.154-3.547-0.198c-1.031-1.357-0.127-2.454,0.738-3.52
		c6.816-8.391,15.962-13.847,24.944-19.409C63.026,141.267,67.605,143.377,67.843,146.191z"/>
	<path fill-rule="evenodd" fill="#292727" d="M209.97,77.863c-1.523-0.422-3.369-0.099-3.983-1.749
		c-0.627-1.683,0.115-3.112,1.527-4.35c6.432-5.642,13.843-8.314,22.397-7.604c3.119,0.259,5.528,1.727,5.845,5.037
		c0.328,3.428-2.562,3.827-4.982,4.346C223.812,75.035,216.832,76.444,209.97,77.863z"/>
	<path fill-rule="evenodd" fill="#282526" d="M210.568,203.066c-0.378,2.049-1.445,3.321-3.042,4.003
		c-1.564,0.669-3.266,0.942-4.647-0.465c-6.172-6.289-12.977-12-17.882-19.448c-0.904-1.373-2.086-2.938-0.531-4.475
		c1.293-1.276,2.963-1.345,4.579-0.306c7.766,4.99,14.075,11.616,20.384,18.232C210.066,201.277,210.259,202.371,210.568,203.066z"
		/>
	<path fill-rule="evenodd" fill="#292627" d="M58.805,196.11c-3.605,0.012-4.268-1.312-2.695-3.71
		c5.247-8.003,12.012-14.578,19.488-20.458c1.792-1.41,3.465-0.932,4.701,0.839c1.18,1.691,3.479,3.643,1.322,5.635
		c-6.201,5.729-12.026,11.933-19.18,16.543C61.244,195.73,59.634,195.86,58.805,196.11z"/>
	<path fill-rule="evenodd" fill="#292627" d="M214.159,108.206c6.113,0.317,12.366-0.12,18.048,2.774
		c1.95,0.994,4.805,1.831,3.999,4.845c-0.702,2.626-3.307,2.291-5.457,2.338c-6.846,0.149-13.602-0.574-20.228-2.284
		c-2.233-0.576-4.494-1.291-6.06-3.209c-0.889-1.088-1.354-2.247-0.724-3.666c0.614-1.38,1.808-1.281,2.959-1.228
		C209.187,107.89,211.672,108.06,214.159,108.206z"/>
	<path fill-rule="evenodd" fill="#282727" d="M221.466,12.127c1.688,0.1,3.379,0.212,4.091,2.155c0.77,2.099,0.377,4.263-1.249,5.49
		c-6.216,4.691-12.484,9.359-19.788,12.316c-1.302,0.527-2.604,0.458-3.674-0.65c-0.902-0.933-1.043-1.99-0.676-3.213
		C201.641,23.32,216.439,12.115,221.466,12.127z"/>
	<path fill-rule="evenodd" fill="#2A2628" d="M203.586,152.624c8.998,1.053,17.174,3.916,23.483,10.817
		c1.517,1.659,3.106,3.692,1.617,5.734c-1.453,1.994-3.776,1.221-5.848,0.19c-5.21-2.59-10.481-5.055-15.723-7.582
		c-2.457-1.184-4.367-3.036-6.011-5.154c-0.713-0.918-1.302-1.986-0.578-3.213C201.274,152.151,202.39,152.211,203.586,152.624z"/>
	<path fill-rule="evenodd" fill="#2A2627" d="M44.706,102.861c1.48,0.177,3.019,0.159,4.428,0.577
		c2.171,0.644,4.024,1.917,4.075,4.459c0.048,2.411-2.126,2.643-3.778,3.313c-6.26,2.541-12.693,3.953-19.498,3.072
		c-2.097-0.271-4.03-0.755-4.413-3.233c-0.38-2.468,1.179-3.611,3.234-4.337C33.931,104.886,39.046,102.802,44.706,102.861z"/>
	<path fill-rule="evenodd" fill="#2B292A" d="M46.573,69.363c-4.925-0.606-9.855-1.18-14.773-1.835
		c-2.009-0.268-3.992-0.84-4.947-2.858c-1.289-2.723-0.94-5.194,2.474-5.53c7.45-0.733,13.99,1.844,19.831,6.359
		c0.99,0.765,1.654,1.749,0.894,2.983C49.244,69.789,47.934,69.922,46.573,69.363z"/>
	<path fill-rule="evenodd" fill="#2B292A" d="M43.313,21.292c5.9,0.868,11.626,2.344,16.2,6.646
		c1.391,1.308,2.645,2.795,1.392,4.743c-1.176,1.829-2.901,1.096-4.454,0.429c-5.006-2.151-10.352-3.583-14.806-6.911
		c-1.086-0.812-2.125-1.748-1.682-3.294C40.439,21.246,41.931,21.418,43.313,21.292z"/>
	<path fill-rule="evenodd" fill="#CBCACA" d="M153.126,195.457c-4.01,0.738-7.947,2.174-12.915,1.211
		c4.353-2.746,8.805-1.673,12.771-2.711C153.03,194.457,153.078,194.957,153.126,195.457z"/>
	<path fill-rule="evenodd" fill="#FDEF02" d="M129.991,19.007c20.311-1.777,36.405,5.408,49.269,21.449
		c5.321,6.636,7.207,13.485,7.348,21.432c0.336,18.848,0.346,37.662-5.958,55.791c-4.832,13.897-12.269,26.554-18.93,39.583
		c-3.153,6.169-6.503,12.129-7.426,19.377c-1.049,8.242-4.235,9.629-12.524,10.472c-10.775,1.097-20.537-3.699-31.002-4.494
		c-3.739-0.284-6.411-5.675-7.998-9.83c-7.351-19.25-16.105-37.938-22.835-57.44c-5.782-16.756-8.44-33.78-6.315-51.538
		c1.497-12.509,9.477-20.874,17.603-29.137c5.644-5.739,12.577-9.675,20.44-11.786C117.798,21.709,124.244,22.011,129.991,19.007z"
		/>
	<path fill-rule="evenodd" fill="#ECECEC" d="M120.433,237.287c7.36-1.356,14.716-2.74,22.085-4.043
		c1.381-0.245,3.356-1.034,3.828,0.995c0.516,2.217-1.446,2.682-3.159,2.847c-3.878,0.372-7.677,0.78-9.791,4.793
		c-0.795,1.509-2.239,1.345-3.509,0.806c-3.29-1.396-6.527-2.915-9.786-4.385C120.211,237.962,120.322,237.625,120.433,237.287z"/>
	<path fill-rule="evenodd" fill="#E6DD26" d="M129.991,19.007c-5.747,3.003-12.193,2.702-18.328,3.877
		C117.491,20.264,123.588,18.912,129.991,19.007z"/>
</g>
</svg>
