<?xml version="1.0" standalone="no"?>
<!DOCTYPE svg PUBLIC "-//W3C//DTD SVG 20010904//EN"
 "http://www.w3.org/TR/2001/REC-SVG-20010904/DTD/svg10.dtd">
<svg version="1.0" xmlns="http://www.w3.org/2000/svg"
 width="260.000000pt" height="260.000000pt" viewBox="0 0 260.000000 260.000000"
 preserveAspectRatio="xMidYMid meet">
<metadata>
Created by potrace 1.11, written by Peter Selinger 2001-2013
</metadata>
<g transform="translate(0.000000,260.000000) scale(0.100000,-0.100000)"
fill="#000000" stroke="none">
<path d="M1185 2504 c-252 -56 -433 -200 -532 -425 -27 -62 -28 -69 -28 -234
0 -186 13 -267 66 -427 34 -101 145 -351 229 -518 46 -91 61 -131 69 -189 7
-52 16 -80 32 -97 l22 -23 -27 -10 c-18 -8 -26 -18 -26 -36 0 -28 14 -33 100
-37 51 -3 53 -4 30 -15 -14 -6 -42 -14 -62 -18 -48 -7 -88 -39 -71 -56 9 -9
28 -9 88 0 42 7 79 10 82 8 10 -10 -48 -40 -94 -48 -53 -10 -66 -24 -51 -52 9
-17 17 -19 74 -13 76 8 84 -5 19 -29 -60 -23 -68 -34 -49 -70 21 -41 44 -54
94 -55 40 0 51 -5 85 -40 31 -32 46 -40 76 -40 31 0 43 8 82 50 39 42 52 50
81 50 42 0 97 43 117 91 11 29 11 33 -9 49 -28 23 -105 33 -195 26 -99 -8 -54
8 92 33 107 18 136 31 127 56 -3 12 -118 13 -236 2 -77 -7 -83 -6 -60 7 14 8
64 20 110 26 142 19 181 36 160 70 -12 19 -65 16 -165 -11 -72 -19 -90 -20
-112 -10 -36 17 -21 24 77 40 80 13 166 36 189 50 13 8 13 12 1 26 -12 15 -26
17 -93 11 -89 -7 -99 8 -11 17 67 7 105 37 123 96 6 21 23 55 37 77 15 21 42
74 61 119 19 44 72 159 118 255 134 280 150 353 150 665 0 192 -2 216 -23 275
-12 36 -39 87 -60 115 -76 100 -223 195 -357 231 -89 23 -245 27 -330 8z m304
-99 c92 -24 162 -66 243 -146 118 -116 123 -130 122 -374 -1 -325 -25 -416
-205 -770 -61 -119 -109 -226 -109 -242 -1 -38 -34 -109 -57 -122 -33 -17
-184 -17 -218 1 -16 8 -63 18 -104 21 -94 8 -105 18 -165 162 -246 591 -282
716 -274 950 4 91 10 133 26 175 23 57 118 176 183 229 53 43 148 89 231 111
89 23 250 26 327 5z m-35 -2134 c9 -13 -15 -28 -58 -35 -21 -4 -48 -18 -61
-32 -12 -13 -26 -24 -31 -24 -14 0 -114 44 -114 51 0 6 199 46 237 48 12 1 24
-3 27 -8z"/>
<path d="M2124 2452 c-70 -45 -137 -116 -132 -140 7 -35 51 -24 148 36 100 63
126 96 100 126 -20 25 -53 19 -116 -22z"/>
<path d="M401 2390 c-26 -15 -1 -41 73 -76 90 -41 119 -46 124 -21 5 26 -21
52 -76 75 -60 25 -104 33 -121 22z"/>
<path d="M261 2007 c-21 -26 -4 -55 37 -66 71 -18 177 -30 186 -21 16 16 -3
39 -55 65 -65 34 -149 44 -168 22z"/>
<path d="M2190 1961 c-99 -30 -175 -106 -125 -125 19 -7 254 40 272 55 18 16
16 36 -7 59 -21 21 -89 26 -140 11z"/>
<path d="M325 1559 c-68 -23 -89 -43 -75 -69 25 -47 270 -11 270 40 0 50 -92
64 -195 29z"/>
<path d="M2027 1516 c-9 -23 24 -53 75 -67 24 -6 88 -12 143 -13 97 -1 100 0
103 22 6 37 -65 61 -201 69 -100 5 -115 4 -120 -11z"/>
<path d="M498 1119 c-95 -70 -168 -137 -168 -155 0 -28 24 -24 98 17 90 49
212 130 231 153 19 23 -3 46 -44 46 -25 0 -54 -16 -117 -61z"/>
<path d="M1993 1074 c-9 -25 43 -68 144 -118 107 -53 143 -59 143 -22 0 37
-79 101 -153 125 -95 30 -127 33 -134 15z"/>
<path d="M661 813 c-97 -97 -132 -149 -106 -159 36 -14 74 10 203 127 28 26
52 54 52 61 0 21 -29 58 -46 58 -8 0 -54 -39 -103 -87z"/>
<path d="M1834 775 c-9 -23 28 -73 120 -164 83 -80 87 -83 109 -69 42 28 33
51 -47 128 -121 116 -168 143 -182 105z"/>
</g>
</svg>
